<svg width="56" height="56" viewBox="0 0 56 56" fill="none" xmlns="http://www.w3.org/2000/svg">
<path d="M28 0C24.323 0 20.682 0.742222 17.2849 2.18429C13.8877 3.62636 10.8011 5.74002 8.20101 8.40462C2.94999 13.786 0 21.0847 0 28.6952C0 41.3784 8.036 52.1391 19.152 55.9556C20.552 56.1851 21 55.2956 21 54.5208V49.6713C13.244 51.393 11.592 45.8262 11.592 45.8262C10.304 42.4975 8.484 41.608 8.484 41.608C5.936 39.8289 8.68 39.8863 8.68 39.8863C11.48 40.0871 12.964 42.8419 12.964 42.8419C15.4 47.2035 19.516 45.9123 21.112 45.2236C21.364 43.3584 22.092 42.0958 22.876 41.3784C16.66 40.661 10.136 38.1933 10.136 27.2604C10.136 24.0752 11.2 21.5214 13.02 19.484C12.74 18.7666 11.76 15.7823 13.3 11.9085C13.3 11.9085 15.652 11.1337 21 14.8354C23.212 14.2041 25.62 13.8885 28 13.8885C30.38 13.8885 32.788 14.2041 35 14.8354C40.348 11.1337 42.7 11.9085 42.7 11.9085C44.24 15.7823 43.26 18.7666 42.98 19.484C44.8 21.5214 45.864 24.0752 45.864 27.2604C45.864 38.2219 39.312 40.6323 33.068 41.3497C34.076 42.2393 35 43.9897 35 46.6583V54.5208C35 55.2956 35.448 56.2138 36.876 55.9556C47.992 52.1104 56 41.3784 56 28.6952C56 24.9269 55.2758 21.1955 53.8686 17.714C52.4615 14.2325 50.399 11.0692 47.799 8.40462C45.1989 5.74002 42.1123 3.62636 38.7151 2.18429C35.318 0.742222 31.677 0 28 0Z" fill="white"/>
</svg>
