<svg width="56" height="56" viewBox="0 0 56 56" fill="none" xmlns="http://www.w3.org/2000/svg">
<path d="M49.7778 0C51.428 0 53.0107 0.655553 54.1776 1.82245C55.3444 2.98934 56 4.57199 56 6.22222V49.7778C56 51.428 55.3444 53.0107 54.1776 54.1776C53.0107 55.3444 51.428 56 49.7778 56H6.22222C4.57199 56 2.98934 55.3444 1.82245 54.1776C0.655553 53.0107 0 51.428 0 49.7778V6.22222C0 4.57199 0.655553 2.98934 1.82245 1.82245C2.98934 0.655553 4.57199 0 6.22222 0H49.7778ZM48.2222 48.2222V31.7333C48.2222 29.0434 47.1537 26.4637 45.2516 24.5617C43.3496 22.6597 40.7699 21.5911 38.08 21.5911C35.4356 21.5911 32.3556 23.2089 30.8622 25.6356V22.1822H22.1822V48.2222H30.8622V32.8844C30.8622 30.4889 32.7911 28.5289 35.1867 28.5289C36.3418 28.5289 37.4497 28.9878 38.2665 29.8046C39.0833 30.6214 39.5422 31.7293 39.5422 32.8844V48.2222H48.2222ZM12.0711 17.2978C13.4573 17.2978 14.7867 16.7471 15.7669 15.7669C16.7471 14.7867 17.2978 13.4573 17.2978 12.0711C17.2978 9.17778 14.9644 6.81333 12.0711 6.81333C10.6767 6.81333 9.33932 7.36728 8.3533 8.3533C7.36728 9.33932 6.81333 10.6767 6.81333 12.0711C6.81333 14.9644 9.17778 17.2978 12.0711 17.2978ZM16.3956 48.2222V22.1822H7.77778V48.2222H16.3956Z" fill="white"/>
</svg>
